<mxfile host="65bd71144e">
    <diagram id="V0nT-00F19yk6WE-XnH0" name="Page-1">
        <mxGraphModel dx="385" dy="367" grid="1" gridSize="10" guides="1" tooltips="1" connect="1" arrows="1" fold="1" page="1" pageScale="1" pageWidth="827" pageHeight="1169" math="0" shadow="0">
            <root>
                <mxCell id="0"/>
                <mxCell id="1" parent="0"/>
                <mxCell id="2" value="project" style="swimlane;fillColor=#a20025;strokeColor=#6F0000;fontColor=#ffffff;gradientColor=#000099;glass=0;shadow=0;sketch=0;rounded=1;startSize=19;" vertex="1" parent="1">
                    <mxGeometry x="50" y="461" width="220" height="239" as="geometry"/>
                </mxCell>
                <mxCell id="4" value="-id : StringÂ " style="text;strokeColor=none;fillColor=none;align=left;verticalAlign=top;spacingLeft=4;spacingRight=4;overflow=hidden;rotatable=0;points=[[0,0.5],[1,0.5]];portConstraint=eastwest;" vertex="1" parent="2">
                    <mxGeometry x="-2" y="20" width="80" height="26" as="geometry"/>
                </mxCell>
                <mxCell id="5" value="-title:String" style="text;strokeColor=none;fillColor=none;align=left;verticalAlign=top;spacingLeft=4;spacingRight=4;overflow=hidden;rotatable=0;points=[[0,0.5],[1,0.5]];portConstraint=eastwest;" vertex="1" parent="2">
                    <mxGeometry x="-2" y="34" width="80" height="26" as="geometry"/>
                </mxCell>
                <mxCell id="6" value="-description:String" style="text;strokeColor=none;fillColor=none;align=left;verticalAlign=top;spacingLeft=4;spacingRight=4;overflow=hidden;rotatable=0;points=[[0,0.5],[1,0.5]];portConstraint=eastwest;" vertex="1" parent="2">
                    <mxGeometry x="-2" y="47" width="150" height="26" as="geometry"/>
                </mxCell>
                <mxCell id="7" value="-Date:String" style="text;strokeColor=none;fillColor=none;align=left;verticalAlign=top;spacingLeft=4;spacingRight=4;overflow=hidden;rotatable=0;points=[[0,0.5],[1,0.5]];portConstraint=eastwest;" vertex="1" parent="2">
                    <mxGeometry x="-2" y="62" width="90" height="26" as="geometry"/>
                </mxCell>
                <mxCell id="8" value="-Completed:Boolean" style="text;strokeColor=none;fillColor=none;align=left;verticalAlign=top;spacingLeft=4;spacingRight=4;overflow=hidden;rotatable=0;points=[[0,0.5],[1,0.5]];portConstraint=eastwest;" vertex="1" parent="2">
                    <mxGeometry x="-1" y="76" width="142" height="26" as="geometry"/>
                </mxCell>
                <mxCell id="12" value="+project(title, description, dueDate)" style="text;strokeColor=none;fillColor=none;align=left;verticalAlign=top;spacingLeft=4;spacingRight=4;overflow=hidden;rotatable=0;points=[[0,0.5],[1,0.5]];portConstraint=eastwest;" vertex="1" parent="2">
                    <mxGeometry x="-1" y="99" width="221" height="26" as="geometry"/>
                </mxCell>
                <mxCell id="14" value="+getTitele():String" style="text;strokeColor=none;fillColor=none;align=left;verticalAlign=top;spacingLeft=4;spacingRight=4;overflow=hidden;rotatable=0;points=[[0,0.5],[1,0.5]];portConstraint=eastwest;" vertex="1" parent="2">
                    <mxGeometry y="113" width="130" height="26" as="geometry"/>
                </mxCell>
                <mxCell id="15" value="+setTitle(String):string" style="text;strokeColor=none;fillColor=none;align=left;verticalAlign=top;spacingLeft=4;spacingRight=4;overflow=hidden;rotatable=0;points=[[0,0.5],[1,0.5]];portConstraint=eastwest;" vertex="1" parent="2">
                    <mxGeometry x="-1" y="129" width="127" height="26" as="geometry"/>
                </mxCell>
                <mxCell id="22" value="+setCompleted(completed):bolean" style="text;strokeColor=none;fillColor=none;align=left;verticalAlign=top;spacingLeft=4;spacingRight=4;overflow=hidden;rotatable=0;points=[[0,0.5],[1,0.5]];portConstraint=eastwest;" vertex="1" parent="2">
                    <mxGeometry x="0.5" y="205" width="211" height="25" as="geometry"/>
                </mxCell>
                <mxCell id="3" value="" style="endArrow=none;html=1;" edge="1" parent="1">
                    <mxGeometry width="50" height="50" relative="1" as="geometry">
                        <mxPoint x="50" y="562" as="sourcePoint"/>
                        <mxPoint x="272" y="562" as="targetPoint"/>
                    </mxGeometry>
                </mxCell>
                <mxCell id="16" value="+getDescription():string" style="text;strokeColor=none;fillColor=none;align=left;verticalAlign=top;spacingLeft=4;spacingRight=4;overflow=hidden;rotatable=0;points=[[0,0.5],[1,0.5]];portConstraint=eastwest;" vertex="1" parent="1">
                    <mxGeometry x="48" y="603" width="162" height="26" as="geometry"/>
                </mxCell>
                <mxCell id="17" value="+setDescription(String):string" style="text;strokeColor=none;fillColor=none;align=left;verticalAlign=top;spacingLeft=4;spacingRight=4;overflow=hidden;rotatable=0;points=[[0,0.5],[1,0.5]];portConstraint=eastwest;" vertex="1" parent="1">
                    <mxGeometry x="49" y="616" width="181" height="26" as="geometry"/>
                </mxCell>
                <mxCell id="18" value="+getDate():string" style="text;strokeColor=none;fillColor=none;align=left;verticalAlign=top;spacingLeft=4;spacingRight=4;overflow=hidden;rotatable=0;points=[[0,0.5],[1,0.5]];portConstraint=eastwest;" vertex="1" parent="1">
                    <mxGeometry x="49" y="630" width="171" height="26" as="geometry"/>
                </mxCell>
                <mxCell id="19" value="+getCompleted():bolean" style="text;strokeColor=none;fillColor=none;align=left;verticalAlign=top;spacingLeft=4;spacingRight=4;overflow=hidden;rotatable=0;points=[[0,0.5],[1,0.5]];portConstraint=eastwest;" vertex="1" parent="1">
                    <mxGeometry x="52" y="654" width="211" height="26" as="geometry"/>
                </mxCell>
                <mxCell id="20" value="+setDate(String):string" style="text;strokeColor=none;fillColor=none;align=left;verticalAlign=top;spacingLeft=4;spacingRight=4;overflow=hidden;rotatable=0;points=[[0,0.5],[1,0.5]];portConstraint=eastwest;" vertex="1" parent="1">
                    <mxGeometry x="49" y="642" width="161" height="26" as="geometry"/>
                </mxCell>
            </root>
        </mxGraphModel>
    </diagram>
</mxfile>